# xmcd
#
# Track frame offsets:
#	150
#	23262
#	41267
#	62990
#	82430
#	102490
#	120562
#	141702
#	161742
#	183475
#	207437
#
# Disc length: 2995 seconds
#
# Revision: 0
# Processed by: cddbd v1.5.2PL0 Copyright (c) Steve Scherf et al.
# Submitted via: EZCDAudioConverter 8.0.2.1
#
DISCID=a10bb10b
DTITLE=Various Artist - Top Hits 15. Mong Anh Sẽ Đến
DYEAR=2003
DGENRE=World Pop
TTITLE0=Như Loan, Bảo Hân - Lãng du
TTITLE1=Bảo Hân - Sẽ không như thế
TTITLE2=Tú Quyên - Ngày đó ta yêu nhau
TTITLE3=Ninh Cát Loan Châu - Bài tango xa rồi
TTITLE4=Như Loan - Mong Anh Sẽ Đến
TTITLE5=Tú Quyên - Chỉ mình em thôi
TTITLE6=Ninh Cát Loan Châu - Mắt nai cha cha cha
TTITLE7=Bảo Hân - Hãy cho em ngày mai
TTITLE8=Tú Quyên - Trái tim không lời
TTITLE9=Như Loan - Didn't You Know
TTITLE10=Như Loan, Bảo Hân, Loan Châu, Tú Quyên - Tình ơi!
EXTD=
EXTT0=
EXTT1=
EXTT2=
EXTT3=
EXTT4=
EXTT5=
EXTT6=
EXTT7=
EXTT8=
EXTT9=
EXTT10=
PLAYORDER=
